Coordinates
version=1
nRows=54
nColumns=13
inDegrees=yes

Units are S.I. units (second, meters, Newtons, ...)
Angles are in degrees.

endheader
time	pelvis_tilt	pelvis_list	pelvis_rotation	pelvis_tx	pelvis_ty	pelvis_tz	hip_flexion_r	hip_adduction_r	hip_rotation_r	knee_angle_r	ankle_angle_r	subtalar_angle_r
      0.00000000	    -11.28300027	     -2.30550981	      9.38778897	     -0.62112317	      0.84196996	      0.09773226	     38.06476192	      2.60544490	     -8.22032570	     -8.98764787	      0.40243596	     -2.68969872
      0.01000000	    -11.08441489	     -2.49459617	      8.92818102	     -0.60334332	      0.84183503	      0.09909192	     37.82787511	      3.32771895	     -7.01751834	    -10.46552923	     -3.30174112	     -4.33639685
      0.02000000	    -10.97062523	     -2.78726085	      8.36558946	     -0.58591982	      0.84213720	      0.10085952	     37.75324131	      4.14665748	     -6.16021598	    -12.42020257	     -4.39498857	     -4.07289413
      0.03000000	    -10.86934183	     -3.21021530	      7.72899160	     -0.56879987	      0.84276415	      0.10287969	     37.85577184	      5.08916614	     -5.47514995	    -14.83749146	     -4.36861824	     -3.14042913
      0.04000000	    -10.64535822	     -3.66754241	      7.10981701	     -0.55184166	      0.84366318	      0.10472968	     37.94866463	      5.98398721	     -5.27660554	    -17.40766340	     -4.40093108	     -3.19541610
      0.05000000	    -10.24416454	     -4.13799004	      6.53419035	     -0.53524726	      0.84482013	      0.10632689	     37.80713418	      6.84396181	     -5.36789589	    -19.91686559	     -3.45961026	     -3.09970931
      0.06000000	     -9.80495857	     -4.57332727	      5.94592061	     -0.51927270	      0.84602672	      0.10784505	     37.47587442	      7.70557664	     -5.39428308	    -22.26204379	     -1.36186598	     -2.15431966
      0.07000000	     -9.36682054	     -4.96849407	      5.35201564	     -0.50369039	      0.84733333	      0.10920742	     36.83249577	      8.55610432	     -5.37118831	    -24.03061290	      0.72554714	     -1.25739495
      0.08000000	     -8.97916010	     -5.40436870	      4.77856325	     -0.48861314	      0.84867473	      0.11065891	     35.88551464	      9.44688723	     -5.43359416	    -25.03390081	      2.21560261	     -0.97396016
      0.09000000	     -8.68387554	     -5.89739682	      4.28991339	     -0.47402153	      0.84996017	      0.11211107	     34.75957230	     10.33877026	     -5.60979923	    -25.47307219	      3.71197400	     -0.60642010
      0.10000000	     -8.43089409	     -6.35977073	      3.89632284	     -0.45978900	      0.85136437	      0.11353732	     33.47995697	     11.15353734	     -5.82714765	    -25.52272628	      5.18699365	     -0.13741139
      0.11000000	     -8.21856246	     -6.64306619	      3.57523902	     -0.44577619	      0.85301832	      0.11501398	     32.07187630	     11.75675997	     -6.04430454	    -25.27169213	      6.55485505	      0.32466839
      0.12000000	     -8.10676397	     -6.71965594	      3.31291722	     -0.43200068	      0.85487710	      0.11648998	     30.69953774	     12.10948428	     -6.23658490	    -24.91075859	      7.91944210	      0.95779917
      0.13000000	     -8.23650744	     -6.68746501	      3.14914619	     -0.41865683	      0.85665832	      0.11788264	     29.59064541	     12.29804463	     -6.35493747	    -24.50615416	      9.03405612	      1.34747178
      0.14000000	     -8.57788667	     -6.55542483	      2.97115075	     -0.40530704	      0.85848899	      0.11940041	     28.66150598	     12.41633380	     -6.27494130	    -24.02990611	      9.93359647	      1.53789910
      0.15000000	     -9.06979703	     -6.34970667	      2.79227467	     -0.39199497	      0.86039169	      0.12094467	     27.84950987	     12.50223226	     -5.93341717	    -23.48312861	     10.48750757	      1.39444681
      0.16000000	     -9.59798304	     -6.09110552	      2.62440808	     -0.37877288	      0.86241514	      0.12240068	     27.01531467	     12.55531978	     -5.41611061	    -22.82478840	     10.75128561	      0.98979874
      0.17000000	    -10.04215697	     -5.76511519	      2.46279598	     -0.36553722	      0.86460679	      0.12375955	     26.01889241	     12.54511815	     -4.81401179	    -22.01931852	     10.89892480	      0.49159522
      0.18000000	    -10.40525945	     -5.38379270	      2.27471876	     -0.35233842	      0.86686254	      0.12502151	     24.87345845	     12.47244355	     -4.16535729	    -21.08330374	     11.03304052	      0.02600676
      0.19000000	    -10.66806523	     -4.95717318	      2.06124357	     -0.33910208	      0.86914875	      0.12615753	     23.53866220	     12.34340748	     -3.44208122	    -19.99193982	     11.19385836	     -0.47510962
      0.20000000	    -10.82870903	     -4.56127358	      1.84499441	     -0.32583406	      0.87143438	      0.12716214	     22.04025797	     12.24282346	     -2.64102095	    -18.79892525	     11.13300021	     -1.11758573
      0.21000000	    -10.94056180	     -4.21336570	      1.62937039	     -0.31254423	      0.87358760	      0.12795400	     20.46025585	     12.16936499	     -1.89508842	    -17.50929535	     10.89014104	     -1.94436673
      0.22000000	    -11.05438826	     -3.92279706	      1.40160702	     -0.29926777	      0.87543464	      0.12850955	     18.87639185	     12.09343158	     -1.18617148	    -16.20038689	     10.61579678	     -2.70047102
      0.23000000	    -11.19669605	     -3.66433249	      1.15894898	     -0.28604770	      0.87695912	      0.12891142	     17.37698043	     12.00672186	     -0.53038378	    -14.96926521	     10.45316461	     -3.25775345
      0.24000000	    -11.34945612	     -3.43623295	      0.92690620	     -0.27282449	      0.87815119	      0.12909149	     15.95030709	     11.89842119	      0.00828657	    -13.86724231	     10.64074967	     -3.16496264
      0.25000000	    -11.51378160	     -3.23842837	      0.71852613	     -0.25952969	      0.87901195	      0.12901325	     14.61450569	     11.76049666	      0.29906451	    -12.91745208	     10.62028799	     -3.27128701
      0.26000000	    -11.68043341	     -3.11736761	      0.52199394	     -0.24618038	      0.87964664	      0.12876367	     13.30443798	     11.70865168	      0.66856314	    -11.89085216	     10.20536883	     -3.84732228
      0.27000000	    -11.84246489	     -2.98875260	      0.33221222	     -0.23268178	      0.87994753	      0.12838615	     11.98379074	     11.59912059	      0.80798339	    -10.87828132	     10.18507182	     -3.92288734
      0.28000000	    -11.97236985	     -2.88312001	      0.16493654	     -0.21907640	      0.87991558	      0.12793703	     10.65637878	     11.51441632	      0.83695687	     -9.91569831	     10.22355930	     -4.11364875
      0.29000000	    -12.06708406	     -2.78059979	     -0.01631456	     -0.20538416	      0.87952656	      0.12747117	      9.33444192	     11.42561577	      0.60719662	     -9.01588261	     10.42499051	     -4.12330797
      0.30000000	    -12.18940666	     -2.66961126	     -0.26084506	     -0.19156014	      0.87877562	      0.12701179	      8.07351684	     11.33088817	      0.26689377	     -8.17996393	     10.74666945	     -3.96372857
      0.31000000	    -12.18805219	     -2.66416930	     -0.50649689	     -0.17743832	      0.87786957	      0.12659682	      6.67722705	     11.36942927	      0.05235882	     -7.43503543	     10.84738363	     -4.03996147
      0.32000000	    -12.08142615	     -2.62399533	     -0.81644440	     -0.16309616	      0.87670054	      0.12629279	      5.09746924	     11.40168180	      0.36233452	     -6.57902538	     10.42522451	     -4.97812045
      0.33000000	    -11.91837924	     -2.57469748	     -1.20747314	     -0.14852826	      0.87523748	      0.12615530	      3.48076445	     11.43315943	      1.06748141	     -5.83220586	      9.75258774	     -6.37727413
      0.34000000	    -11.70207246	     -2.57328690	     -1.63816405	     -0.13380193	      0.87372582	      0.12593378	      2.15195687	     11.40061400	      0.55962655	     -5.93223211	     11.03599179	     -4.87688342
      0.35000000	    -11.51605742	     -2.58714531	     -2.14255471	     -0.11913979	      0.87191759	      0.12584260	      0.83195048	     11.38554781	      0.75231011	     -5.96193713	     11.57160495	     -4.50476229
      0.36000000	    -11.48398454	     -2.56005758	     -2.84799753	     -0.10465848	      0.86970745	      0.12614168	     -0.21919350	     11.33243279	      1.41489351	     -6.20292962	     11.89843696	     -4.81108065
      0.37000000	    -11.46533790	     -2.59633000	     -3.58728605	     -0.08968103	      0.86726131	      0.12644855	     -1.26047703	     11.31475001	      2.29019437	     -6.52121519	     11.99866435	     -5.03251701
      0.38000000	    -11.47119232	     -2.65259156	     -4.22838234	     -0.07464036	      0.86484133	      0.12636921	     -2.17717429	     11.23871094	      2.84474304	     -7.02610948	     12.37762674	     -4.50610060
      0.39000000	    -11.54628061	     -2.68373058	     -4.84514112	     -0.05959455	      0.86240433	      0.12604526	     -2.94022751	     11.08680208	      3.25446854	     -7.65494125	     12.89165596	     -3.78310774
      0.40000000	    -11.64904686	     -2.71421690	     -5.42344650	     -0.04442339	      0.85996612	      0.12551583	     -3.64223978	     10.88700936	      3.66792265	     -8.34325498	     13.36440211	     -2.23714027
      0.41000000	    -11.67306127	     -2.78061352	     -5.91802397	     -0.02887193	      0.85768463	      0.12475860	     -4.41083485	     10.68627838	      4.05942863	     -9.06871865	     13.64127715	     -1.29936977
      0.42000000	    -11.64668297	     -2.83028346	     -6.40976784	     -0.01308102	      0.85552792	      0.12404339	     -5.12054572	     10.47788205	      4.36758834	     -9.92347268	     13.39083712	     -1.18353730
      0.43000000	    -11.61520324	     -2.79222501	     -6.88913246	      0.00260169	      0.85351879	      0.12339875	     -5.55559262	     10.08659589	      3.98417096	    -11.29786829	     14.03880605	      0.64724098
      0.44000000	    -11.56369865	     -2.66450324	     -7.33756341	      0.01846082	      0.85164482	      0.12291292	     -5.88046750	      9.58769462	      3.63596290	    -12.89979134	     14.65767918	      3.33943856
      0.45000000	    -11.46894684	     -2.45521066	     -7.70502534	      0.03456568	      0.85003050	      0.12253267	     -6.20600057	      9.10182255	      3.95277243	    -14.52309641	     14.08346810	      4.43393687
      0.46000000	    -11.31045402	     -2.20262160	     -7.96440372	      0.05104747	      0.84868459	      0.12214450	     -6.47840518	      8.57801634	      4.18692095	    -16.30504348	     13.37443833	      5.14484712
      0.47000000	    -11.14702857	     -1.94892957	     -8.09597366	      0.06790806	      0.84747602	      0.12160115	     -6.60615268	      7.99201484	      3.94026622	    -18.34935509	     13.09925917	      6.80807135
      0.48000000	    -10.97689113	     -1.70843643	     -8.09433337	      0.08481187	      0.84644856	      0.12093725	     -6.60611137	      7.44499100	      3.62595421	    -20.48503897	     11.70876466	      7.70182752
      0.49000000	    -10.85027120	     -1.47446874	     -7.96439226	      0.10146297	      0.84564147	      0.12004757	     -6.34431329	      6.91659587	      3.35128627	    -22.84693726	     10.00366494	      8.66419507
      0.50000000	    -10.76516987	     -1.17986087	     -7.65595755	      0.11811201	      0.84501844	      0.11877287	     -5.77368220	      6.30683418	      2.93007137	    -25.49266075	      8.12194804	      9.92722724
      0.51000000	    -10.67903658	     -0.73032650	     -7.22272880	      0.13466964	      0.84466520	      0.11718992	     -4.90047882	      5.47200777	      2.22180540	    -28.40865672	      5.67310077	     11.50603176
      0.52000000	    -10.54511006	     -0.09025185	     -6.76500190	      0.15116355	      0.84453769	      0.11537760	     -3.81522882	      4.27843702	      1.18211336	    -31.55815340	      2.54658327	     13.63438542
      0.53000000	    -10.33020717	      0.65810823	     -6.24642511	      0.16750574	      0.84460009	      0.11333424	     -2.62768138	      2.81381291	     -0.03371266	    -35.00407503	     -0.62632695	     15.60980541
